<svg xmlns="http://www.w3.org/2000/svg" viewBox="0 0 67 47.02"><defs><style>.a{fill:#fff;fill-rule:evenodd;}</style></defs><path class="a" d="M65.138,24.352c-2.955-16.5-9.561-21.37-13.075-21.37-5.484,0-6.891,4.077-18.563,4.214C21.829,7.059,20.422,2.982,14.938,2.982c-3.514,0-10.124,4.868-13.079,21.37C.174,33.772-1.655,47.836,2.7,49.524c5.424,2.1,7.263-3.152,13.219-7.591,6.047-4.5,8.948-5.558,17.578-5.558s11.531,1.059,17.578,5.558c5.956,4.435,7.8,9.692,13.219,7.591C68.656,47.836,66.827,33.776,65.138,24.352ZM20.1,26.493a6.7,6.7,0,1,1,6.7-6.7A6.7,6.7,0,0,1,20.1,26.493Zm23.45,0a3.35,3.35,0,1,1,3.35-3.35A3.347,3.347,0,0,1,43.55,26.493Zm6.7-6.7a3.35,3.35,0,1,1,3.35-3.35A3.347,3.347,0,0,1,50.251,19.793Z" transform="translate(0 -2.982)"/></svg>